<svg xmlns="http://www.w3.org/2000/svg" width="95" height="95" viewBox="0 0 95 95" fill="none"><metadata><rdf:RDF xmlns:rdf="http://www.w3.org/1999/02/22-rdf-syntax-ns#" xmlns:dc="http://purl.org/dc/elements/1.1/"><rdf:Description><dc:creator>RealFaviconGenerator</dc:creator><dc:source>https://realfavicongenerator.net</dc:source></rdf:Description></rdf:RDF></metadata><path d="M71.1824 71.2111C84.2867 58.1015 84.2867 36.8467 71.1824 23.7371C58.0781 10.6275 36.8318 10.6275 23.7275 23.7371C10.6232 36.8467 10.6232 58.1015 23.7275 71.2111C36.8318 84.3207 58.0781 84.3207 71.1824 71.2111Z" fill="#B9FF66"></path><path d="M47.4487 81.8919C28.4976 81.8919 13.0312 66.4585 13.0312 47.4606C13.0312 28.5018 28.4584 13.0293 47.4487 13.0293C66.439 13.0293 81.8662 28.4627 81.8662 47.4606C81.8662 66.4193 66.439 81.8919 47.4487 81.8919ZM47.4487 14.7528C29.4373 14.7528 14.7541 29.4028 14.7541 47.4606C14.7541 65.4792 29.3981 80.1684 47.4487 80.1684C65.4601 80.1684 80.1433 65.5184 80.1433 47.4606C80.1433 29.4419 65.4993 14.7528 47.4487 14.7528Z" fill="#B9FF66"></path><path d="M56.5323 50.79C54.6528 50.79 53.0083 51.6909 51.912 53.1011L40.5961 48.6747C40.5961 48.5181 40.6352 48.4005 40.6352 48.2439C40.6352 47.9697 40.5961 47.6955 40.557 47.4213L52.1469 42.0548C53.2041 43.2691 54.7703 44.0526 56.5323 44.0917C59.743 44.0917 62.4055 41.4673 62.4055 38.2161C62.4055 34.9649 59.7821 32.3013 56.5323 32.3013C53.3215 32.3013 50.659 34.9257 50.659 38.1769C50.659 38.4511 50.6982 38.7253 50.7373 38.9995L39.1474 44.3659C38.0902 43.1516 36.5239 42.3682 34.762 42.329C31.5512 42.329 28.8887 44.9535 28.8887 48.2047C28.8887 51.4559 31.5121 54.1195 34.762 54.1195C36.6414 54.1195 38.2859 53.2186 39.3823 51.8084L50.6982 56.2347C50.6982 56.3914 50.659 56.5089 50.659 56.6656C50.659 59.9168 53.2824 62.5804 56.5323 62.5804C59.743 62.5804 62.4055 59.956 62.4055 56.7048C62.3664 53.4536 59.743 50.8291 56.5323 50.79Z" fill="black"></path></svg>