<svg width="19" height="18" viewBox="0 0 19 18" fill="none" xmlns="http://www.w3.org/2000/svg">
    <path d="M0.535819 14.3832C-0.0987934 14.9157 -0.181569 15.8618 0.350933 16.4964C0.883436 17.131 1.82957 17.2138 2.46418 16.6813L1.5 15.5322L0.535819 14.3832ZM18.3152 2.80721C18.3874 1.98193 17.7769 1.25439 16.9516 1.18218L3.50299 0.00558C2.67772 -0.0666222 1.95017 0.543863 1.87797 1.36914C1.80577 2.19441 2.41625 2.92196 3.24153 2.99416L15.1959 4.04003L14.15 15.9944C14.0778 16.8196 14.6883 17.5472 15.5136 17.6194C16.3388 17.6916 17.0664 17.0811 17.1386 16.2558L18.3152 2.80721ZM1.5 15.5322L2.46418 16.6813L17.7851 3.82554L16.8209 2.67648L15.8567 1.52741L0.535819 14.3832L1.5 15.5322Z"
          fill="#B9FF66"/>
</svg>
